<svg width="24" height="24" viewBox="0 0 24 24" fill="none" xmlns="http://www.w3.org/2000/svg">

  <!-- Seagull body, head and tail -->
  <path
    d="M4.2 14.8
       C6.1 14.2 7.8 13.2 9.3 11.9
       C10.8 10.6 12.5 9.8 14.4 9.9
       C15.8 10 17 10.6 17.8 11.5
       C18.8 11.1 19.8 11.1 20.8 11.5
       L18 12.8
       C16.8 14.7 14.6 15.8 12 15.9
       C9.1 16.1 6.5 15.7 4.2 14.8Z"
    stroke="#B97854"
    stroke-width="1.5"
    stroke-linecap="round"
    stroke-linejoin="round"
  />

  <!-- Wing detail contained inside body -->
  <path
    d="M8.2 14.1
       C9.7 12.8 11.5 11.8 13.6 11.4
       C12.7 12.7 11.6 13.8 10.2 14.7"
    stroke="#B97854"
    stroke-width="1.5"
    stroke-linecap="round"
    stroke-linejoin="round"
  />

  <!-- Beak -->
  <path
    d="M20.8 11.5L22 11"
    stroke="#B97854"
    stroke-width="1.5"
    stroke-linecap="round"
  />

  <!-- Legs -->
  <path
    d="M11 15.9V18.2"
    stroke="#B97854"
    stroke-width="1.5"
    stroke-linecap="round"
  />

  <path
    d="M14 15.7V18.2"
    stroke="#B97854"
    stroke-width="1.5"
    stroke-linecap="round"
  />

</svg>