<svg width="24" height="24" viewBox="0 0 24 24" fill="none" xmlns="http://www.w3.org/2000/svg">
  <path d="M4 8.2H14.4C16 8.2 17.2 7.1 17.2 5.7C17.2 4.3 16.1 3.3 14.7 3.3C13.6 3.3 12.7 3.9 12.3 4.8" stroke="#B97854" stroke-width="1.7" stroke-linecap="round" stroke-linejoin="round"/>
  <path d="M4 12H18.6C20 12 21 13 21 14.3C21 15.6 20 16.6 18.7 16.6C17.7 16.6 16.9 16.1 16.4 15.3" stroke="#B97854" stroke-width="1.7" stroke-linecap="round" stroke-linejoin="round"/>
  <path d="M4 15.8H11.8C13 15.8 13.9 16.7 13.9 17.8C13.9 18.9 13 19.7 12 19.7C11.2 19.7 10.5 19.3 10.2 18.7" stroke="#B97854" stroke-width="1.7" stroke-linecap="round" stroke-linejoin="round"/>
</svg>